<svg xmlns="http://www.w3.org/2000/svg" width="155" height="112" fill-rule="evenodd" xmlns:v="https://vecta.io/nano"><path d="M146.42 66.36l-32.954 39.605a15.36 15.36 0 0 1-11.807 5.536H77.68a15.1 15.1 0 0 1-15.096-15.096c0-3.398 1.147-6.697 3.254-9.363l17.08-21.603a15.36 15.36 0 0 0 .086-18.944L66.178 24.813c-5.104-6.576-3.9-16.044 2.666-21.148A15.07 15.07 0 0 1 78.085.5h23.467a15.36 15.36 0 0 1 11.919 5.672l33.06 40.675a15.36 15.36 0 0 1-.112 19.513z" fill-opacity=".05" fill="#f102bf"/><path d="M100.42 66.36l-32.954 39.605A15.36 15.36 0 0 1 55.66 111.5H31.68a15.1 15.1 0 0 1-15.096-15.096c0-3.398 1.147-6.697 3.254-9.363l17.08-21.603a15.36 15.36 0 0 0 .086-18.944L20.178 24.813c-5.104-6.576-3.9-16.044 2.666-21.148A15.07 15.07 0 0 1 32.085.5h23.467a15.36 15.36 0 0 1 11.919 5.672l33.06 40.675a15.36 15.36 0 0 1-.112 19.513z" fill-opacity=".1" fill="#0caade"/></svg>