<svg xmlns="http://www.w3.org/2000/svg" width="205" height="261" xmlns:v="https://vecta.io/nano"><path d="M-4.478 95.677L77.657-3.58A38.4 38.4 0 0 1 107.242-17.5h59.596c20.837 0 37.73 16.892 37.73 37.73a37.73 37.73 0 0 1-8.071 23.321l-42.803 54.434c-10.873 13.827-10.96 33.274-.213 47.198l42.17 54.636c12.71 16.468 9.665 40.123-6.804 52.834a37.67 37.67 0 0 1-23.015 7.849h-58.32a38.4 38.4 0 0 1-29.863-14.26L-4.757 144.297c-11.486-14.21-11.37-34.544.28-48.62z" fill="#0caade" fill-rule="evenodd" fill-opacity=".05"/></svg>