<svg xmlns="http://www.w3.org/2000/svg" width="203" height="258" xmlns:v="https://vecta.io/nano"><path d="M209.935 165.323L127.8 264.58A38.4 38.4 0 0 1 98.216 278.5H38.62C17.783 278.5.89 261.608.89 240.77a37.73 37.73 0 0 1 8.071-23.321l42.803-54.434c10.873-13.827 10.96-33.274.213-47.198L9.808 61.182C-2.902 44.714.144 21.06 16.612 8.35A37.67 37.67 0 0 1 39.627.5h58.32a38.4 38.4 0 0 1 29.863 14.26l82.405 101.942c11.486 14.21 11.37 34.544-.28 48.62z" fill="#f102bf" fill-rule="evenodd" fill-opacity=".05"/></svg>