<?xml version="1.0" encoding="UTF-8"?> <svg xmlns="http://www.w3.org/2000/svg" xmlns:xlink="http://www.w3.org/1999/xlink" width="664px" height="98px" viewBox="0 0 664 98" version="1.1"><title>Group</title><g id="Brand-Identity" stroke="none" stroke-width="1" fill="none" fill-rule="evenodd"><g transform="translate(-216.000000, -727.000000)" id="Group"><g transform="translate(116.000000, 651.000000)"><rect id="Rectangle" fill-opacity="0" fill="#FFFFFF" x="0" y="0" width="827" height="249"></rect><path d="M151.560757,108.235247 L182.640385,133.897337 C185.401258,136.176957 187,139.570313 187,143.150688 L187,161.74851 C187,168.263992 181.718158,173.545834 175.202676,173.545834 C172.562085,173.545834 169.997835,172.659936 167.920376,171.02994 L150.838907,157.627653 C146.521778,154.240392 140.456973,154.213057 136.109488,157.561267 L118.964592,170.765382 C113.810999,174.734413 106.415651,173.774137 102.44662,168.620544 C100.860246,166.560715 100,164.033876 100,161.433977 L100,143.234998 C100,139.606423 101.641882,136.172708 104.466232,133.894637 L136.386604,108.148237 C140.823358,104.56963 147.165333,104.605996 151.560757,108.235247 Z" id="Triangle" fill="#F102BF" transform="translate(143.500000, 144.000000) rotate(-360.000000) translate(-143.500000, -144.000000) "></path><path d="M152.560757,70.2352465 L183.640385,95.8973369 C186.401258,98.1769575 188,101.570313 188,105.150688 L188,123.74851 C188,130.263992 182.718158,135.545834 176.202676,135.545834 C173.562085,135.545834 170.997835,134.659936 168.920376,133.02994 L151.838907,119.627653 C147.521778,116.240392 141.456973,116.213057 137.109488,119.561267 L119.964592,132.765382 C114.810999,136.734413 107.415651,135.774137 103.44662,130.620544 C101.860246,128.560715 101,126.033876 101,123.433977 L101,105.234998 C101,101.606423 102.641882,98.1727078 105.466232,95.8946375 L137.386604,70.148237 C141.823358,66.5696303 148.165333,66.6059955 152.560757,70.2352465 Z" id="Triangle" fill-opacity="0.9" fill="#0CB8EF" transform="translate(144.500000, 106.000000) rotate(-180.000000) translate(-144.500000, -106.000000) "></path><path d="M221.311287,158.143939 L221.311287,120.890152 C221.311287,116.02904 222.451953,112.316919 224.733285,109.753788 C227.014618,107.190657 230.07876,105.909091 233.925713,105.909091 C237.504274,105.909091 240.277658,107.013889 242.245866,109.223485 C244.214075,111.433081 245.198179,114.526515 245.198179,118.503788 L245.198179,118.503788 L245.198179,158.143939 L262.509466,158.143939 L262.509466,120.890152 C262.509466,116.02904 263.6054,112.316919 265.797268,109.753788 C267.989137,107.190657 271.053279,105.909091 274.989696,105.909091 C278.568256,105.909091 281.341641,107.013889 283.309849,109.223485 C285.278057,111.433081 286.262162,114.526515 286.262162,118.503788 L286.262162,118.503788 L286.262162,158.143939 L303.573448,158.143939 L303.573448,117.310606 C303.573448,109.002525 301.26975,102.373737 296.662353,97.4242424 C292.054956,92.4747475 285.904305,90 278.2104,90 C269.353463,90 262.688394,93.1818182 258.215193,99.5454545 C254.278776,93.1818182 248.195223,90 239.964534,90 C231.554917,90 225.337168,92.9608586 221.311287,98.8825758 L221.311287,98.8825758 L221.311287,91.8560606 L204,91.8560606 L204,158.143939 L221.311287,158.143939 Z M342.982347,160 C352.376068,160 359.667386,156.77399 364.856298,150.32197 L364.856298,150.32197 L364.856298,158.143939 L382.167585,158.143939 L382.167585,91.8560606 L364.856298,91.8560606 L364.856298,99.6780303 C359.667386,93.2260101 352.376068,90 342.982347,90 C334.035945,90 326.364406,93.3806818 319.967729,100.142045 C313.571052,106.903409 310.372713,115.189394 310.372713,125 C310.372713,134.810606 313.571052,143.096591 319.967729,149.857955 C326.364406,156.619318 334.035945,160 342.982347,160 Z M346.203051,143.693182 C340.83521,143.693182 336.406742,141.969697 332.917645,138.522727 C329.428549,134.987374 327.684,130.479798 327.684,125 C327.684,119.520202 329.428549,115.034722 332.917645,111.543561 C336.406742,108.052399 340.83521,106.306818 346.203051,106.306818 C351.570892,106.306818 356.021727,108.052399 359.555556,111.543561 C363.089384,115.034722 364.856298,119.520202 364.856298,125 C364.856298,130.479798 363.089384,134.965278 359.555556,138.456439 C356.021727,141.947601 351.570892,143.693182 346.203051,143.693182 Z M410.706606,158.143939 L410.706606,126.458333 C410.706606,120.094697 412.786644,115.542929 416.946721,112.80303 C421.106798,110.063131 425.826024,109.002525 431.104401,109.621212 L431.104401,109.621212 L431.104401,90.530303 C426.541737,90.530303 422.404026,91.5909091 418.691269,93.7121212 C414.978513,95.8333333 412.316958,99.0151515 410.706606,103.257576 L410.706606,103.257576 L410.706606,91.8560606 L393.395319,91.8560606 L393.395319,158.143939 L410.706606,158.143939 Z M463.266715,160 C472.660436,160 479.951753,156.77399 485.140666,150.32197 L485.140666,150.32197 L485.140666,158.143939 L502.451953,158.143939 L502.451953,91.8560606 L485.140666,91.8560606 L485.140666,99.6780303 C479.951753,93.2260101 472.660436,90 463.266715,90 C454.320313,90 446.648774,93.3806818 440.252097,100.142045 C433.85542,106.903409 430.657081,115.189394 430.657081,125 C430.657081,134.810606 433.85542,143.096591 440.252097,149.857955 C446.648774,156.619318 454.320313,160 463.266715,160 Z M466.487419,143.693182 C461.119578,143.693182 456.69111,141.969697 453.202013,138.522727 C449.712916,134.987374 447.968368,130.479798 447.968368,125 C447.968368,119.520202 449.712916,115.034722 453.202013,111.543561 C456.69111,108.052399 461.119578,106.306818 466.487419,106.306818 C471.85526,106.306818 476.306095,108.052399 479.839923,111.543561 C483.373752,115.034722 485.140666,119.520202 485.140666,125 C485.140666,130.479798 483.373752,134.965278 479.839923,138.456439 C476.306095,141.947601 471.85526,143.693182 466.487419,143.693182 Z M530.990974,158.143939 L530.990974,120.890152 C530.990974,116.02904 532.13164,112.316919 534.412972,109.753788 C536.694305,107.190657 539.758447,105.909091 543.6054,105.909091 C547.18396,105.909091 549.957345,107.013889 551.925553,109.223485 C553.893761,111.433081 554.877866,114.526515 554.877866,118.503788 L554.877866,118.503788 L554.877866,158.143939 L572.189152,158.143939 L572.189152,120.890152 C572.189152,116.02904 573.285087,112.316919 575.476955,109.753788 C577.668823,107.190657 580.732966,105.909091 584.669383,105.909091 C588.247943,105.909091 591.021328,107.013889 592.989536,109.223485 C594.957744,111.433081 595.941848,114.526515 595.941848,118.503788 L595.941848,118.503788 L595.941848,158.143939 L613.253135,158.143939 L613.253135,117.310606 C613.253135,109.002525 610.949437,102.373737 606.34204,97.4242424 C601.734643,92.4747475 595.583992,90 587.890087,90 C579.03315,90 572.368081,93.1818182 567.89488,99.5454545 C563.958463,93.1818182 557.87491,90 549.644221,90 C541.234603,90 535.016854,92.9608586 530.990974,98.8825758 L530.990974,98.8825758 L530.990974,91.8560606 L513.679687,91.8560606 L513.679687,158.143939 L530.990974,158.143939 Z M656.82211,160 C669.704929,160 679.456506,155.271465 686.076843,145.814394 L686.076843,145.814394 L672.120457,137.859848 C668.720824,142.27904 663.71084,144.488636 657.090502,144.488636 C646.802141,144.488636 640.494928,140.334596 638.168863,132.026515 L638.168863,132.026515 L688.760764,132.026515 C689.208084,129.551768 689.431744,127.209596 689.431744,125 C689.431744,115.10101 686.233405,106.792929 679.836728,100.075758 C673.440051,93.3585859 665.321192,90 655.48015,90 C645.102324,90 636.603243,93.3364899 629.982906,100.00947 C623.362569,106.682449 620.0524,115.012626 620.0524,125 C620.0524,135.075758 623.407301,143.42803 630.117102,150.056818 C636.826903,156.685606 645.728573,160 656.82211,160 Z M672.120457,118.768939 L637.900471,118.768939 C638.884575,114.526515 640.897516,111.234217 643.939292,108.892045 C646.981069,106.549874 650.828021,105.378788 655.48015,105.378788 C659.416567,105.378788 662.928029,106.483586 666.014538,108.693182 C669.101046,110.902778 671.136353,114.261364 672.120457,118.768939 L672.120457,118.768939 Z M728.438054,160 C738.36856,160 746.778177,156.641414 753.666906,149.924242 C760.555635,143.118687 764,134.810606 764,125 C764,115.189394 760.555635,106.903409 753.666906,100.142045 C746.778177,93.3806818 738.36856,90 728.438054,90 C718.507549,90 710.120297,93.3806818 703.2763,100.142045 C696.432303,106.903409 693.010304,115.189394 693.010304,125 C693.010304,134.810606 696.432303,143.096591 703.2763,149.857955 C710.120297,156.619318 718.507549,160 728.438054,160 Z M728.438054,143.295455 C723.249141,143.295455 718.910137,141.57197 715.42104,138.125 C712.021407,134.67803 710.321591,130.30303 710.321591,125 C710.321591,119.69697 712.043773,115.32197 715.488138,111.875 C718.932503,108.42803 723.249141,106.704545 728.438054,106.704545 C733.626967,106.704545 737.965972,108.42803 741.455068,111.875 C744.944165,115.32197 746.688713,119.69697 746.688713,125 C746.688713,130.30303 744.944165,134.67803 741.455068,138.125 C737.965972,141.57197 733.626967,143.295455 728.438054,143.295455 Z" id="marameo" fill="#1C304A" fill-rule="nonzero"></path><path d="M150.759588,106.764358 L172,124.947079 L172,124.947079 L149.782105,143.368414 C145.855137,146.624348 140.156178,146.58678 136.272476,143.279357 L115,125.163376 L115,125.163376 L137.213475,106.671163 C141.14783,103.395902 146.87067,103.435274 150.759588,106.764358 Z" id="Rectangle" fill="#437ECB" transform="translate(143.500000, 125.000000) rotate(-360.000000) translate(-143.500000, -125.000000) "></path></g></g></g></svg> 