<?xml version="1.0" encoding="utf-8"?>
<svg viewBox="148 240 1116 345.333" xmlns="http://www.w3.org/2000/svg">
  <defs>
    <clipPath clipPathUnits="userSpaceOnUse" id="clipPath22">
      <path d="m 1160,31730 h 8270 v 2490 H 1160 Z" id="path20"/>
    </clipPath>
    <clipPath clipPathUnits="userSpaceOnUse" id="clipPath32">
      <path d="m 2477.48,33196.9 414.39,-342.2 c 36.81,-30.4 58.13,-75.6 58.13,-123.4 v -247.9 c 0,-86.9 -70.43,-157.3 -157.3,-157.3 -35.2,0 -69.4,11.8 -97.09,33.5 l -227.76,178.7 c -57.56,45.2 -138.42,45.5 -196.39,0.9 l -228.6,-176.1 c -68.71,-52.9 -167.32,-40.1 -220.24,28.6 -21.15,27.5 -32.62,61.2 -32.62,95.8 v 242.7 c 0,48.4 21.89,94.2 59.55,124.5 l 425.61,343.3 c 59.15,47.7 143.71,47.3 202.32,-1.1 z" clip-rule="evenodd" id="path30"/>
    </clipPath>
    <clipPath clipPathUnits="userSpaceOnUse" id="clipPath38">
      <path d="M 0,0 H 24860 V 36070 H 0 Z" id="path36"/>
    </clipPath>
    <clipPath clipPathUnits="userSpaceOnUse" id="clip-1">
      <path d="m 2477.48,33196.9 414.39,-342.2 c 36.81,-30.4 58.13,-75.6 58.13,-123.4 v -247.9 c 0,-86.9 -70.43,-157.3 -157.3,-157.3 -35.2,0 -69.4,11.8 -97.09,33.5 l -227.76,178.7 c -57.56,45.2 -138.42,45.5 -196.39,0.9 l -228.6,-176.1 c -68.71,-52.9 -167.32,-40.1 -220.24,28.6 -21.15,27.5 -32.62,61.2 -32.62,95.8 v 242.7 c 0,48.4 21.89,94.2 59.55,124.5 l 425.61,343.3 c 59.15,47.7 143.71,47.3 202.32,-1.1 z" clip-rule="evenodd" id="path-1"/>
    </clipPath>
    <clipPath clipPathUnits="userSpaceOnUse" id="clip-2">
      <path d="M 0,0 H 24860 V 36070 H 0 Z" id="path-2"/>
    </clipPath>
    <clipPath clipPathUnits="userSpaceOnUse" id="clipPath48">
      <path d="M 2466.53,33212.1 2750,32970.7 v 0 l -296.51,-244.6 c -52.26,-43.1 -127.9,-42.6 -179.59,1.2 l -283.9,240.5 v 0 l 296.45,245.6 c 52.37,43.3 128.32,42.8 180.08,-1.3 z" clip-rule="evenodd" id="path46"/>
    </clipPath>
    <clipPath clipPathUnits="userSpaceOnUse" id="clipPath54">
      <path d="M 0,0 H 24860 V 36070 H 0 Z" id="path52"/>
    </clipPath>
    <clipPath clipPathUnits="userSpaceOnUse" id="clipPath64">
      <path d="m 3373.11,32868.6 v 372.5 c 0,48.6 11.41,85.7 34.22,111.4 22.81,25.6 53.46,38.4 91.93,38.4 35.78,0 63.52,-11 83.2,-33.1 19.68,-22.1 29.52,-53.1 29.52,-92.8 v 0 -396.4 h 173.11 v 372.5 c 0,48.6 10.96,85.7 32.88,111.4 21.92,25.6 52.56,38.4 91.93,38.4 35.78,0 63.52,-11 83.2,-33.1 19.68,-22.1 29.52,-53.1 29.52,-92.8 v 0 -396.4 h 173.11 v 408.3 c 0,83.1 -23.03,149.4 -69.1,198.9 -46.08,49.5 -107.59,74.2 -184.52,74.2 -88.57,0 -155.23,-31.8 -199.96,-95.5 -39.36,63.7 -100.2,95.5 -182.51,95.5 -84.09,0 -146.27,-29.6 -186.53,-88.8 v 0 70.2 H 3200 v -662.8 z m 1216.71,-18.6 c 93.94,0 166.86,32.3 218.74,96.8 v 0 -78.2 h 173.12 v 662.8 h -173.12 v -78.2 c -51.88,64.5 -124.8,96.8 -218.74,96.8 -89.46,0 -166.18,-33.8 -230.14,-101.4 -63.97,-67.6 -95.95,-150.5 -95.95,-248.6 0,-98.1 31.98,-181 95.95,-248.6 63.96,-67.6 140.68,-101.4 230.14,-101.4 z m 32.21,163.1 c -53.68,0 -97.96,17.2 -132.85,51.7 -34.89,35.3 -52.34,80.4 -52.34,135.2 0,54.8 17.45,99.7 52.34,134.6 34.89,34.9 79.17,52.3 132.85,52.3 53.68,0 98.19,-17.4 133.52,-52.3 35.34,-34.9 53.01,-79.8 53.01,-134.6 0,-54.8 -17.67,-99.7 -53.01,-134.6 -35.33,-34.9 -79.84,-52.3 -133.52,-52.3 z m 645.04,-144.5 v 316.8 c 0,63.7 20.8,109.2 62.4,136.6 41.6,27.4 88.79,38 141.57,31.8 v 0 190.9 c -45.62,0 -87,-10.6 -124.13,-31.8 -37.12,-21.2 -63.74,-53.1 -79.84,-95.5 v 0 114 h -173.12 v -662.8 z m 525.6,-18.6 c 93.94,0 166.85,32.3 218.74,96.8 v 0 -78.2 h 173.11 v 662.8 h -173.11 v -78.2 c -51.89,64.5 -124.8,96.8 -218.74,96.8 -89.47,0 -166.18,-33.8 -230.15,-101.4 -63.97,-67.6 -95.95,-150.5 -95.95,-248.6 0,-98.1 31.98,-181 95.95,-248.6 63.97,-67.6 140.68,-101.4 230.15,-101.4 z m 32.21,163.1 c -53.68,0 -97.97,17.2 -132.86,51.7 -34.89,35.3 -52.34,80.4 -52.34,135.2 0,54.8 17.45,99.7 52.34,134.6 34.89,34.9 79.18,52.3 132.86,52.3 53.67,0 98.18,-17.4 133.52,-52.3 35.34,-34.9 53.01,-79.8 53.01,-134.6 0,-54.8 -17.67,-99.7 -53.01,-134.6 -35.34,-34.9 -79.85,-52.3 -133.52,-52.3 z m 645.03,-144.5 v 372.5 c 0,48.6 11.41,85.7 34.22,111.4 22.81,25.6 53.46,38.4 91.92,38.4 35.79,0 63.52,-11 83.2,-33.1 19.69,-22.1 29.53,-53.1 29.53,-92.8 v 0 -396.4 h 173.11 v 372.5 c 0,48.6 10.96,85.7 32.88,111.4 21.92,25.6 52.56,38.4 91.93,38.4 35.78,0 63.51,-11 83.19,-33.1 19.69,-22.1 29.53,-53.1 29.53,-92.8 v 0 -396.4 h 173.11 v 408.3 c 0,83.1 -23.03,149.4 -69.11,198.9 -46.07,49.5 -107.58,74.2 -184.52,74.2 -88.57,0 -155.22,-31.8 -199.95,-95.5 -39.36,63.7 -100.2,95.5 -182.51,95.5 -84.09,0 -146.27,-29.6 -186.53,-88.8 v 0 70.2 H 6296.8 v -662.8 z m 1258.31,-18.6 c 128.83,0 226.35,47.3 292.55,141.9 v 0 l -139.56,79.5 c -34,-44.2 -84.1,-66.3 -150.3,-66.3 -102.89,0 -165.96,41.6 -189.22,124.6 v 0 h 505.92 c 4.47,24.8 6.71,48.2 6.71,70.3 0,99 -31.98,182.1 -95.95,249.2 -63.97,67.2 -145.16,100.8 -243.57,100.8 -103.78,0 -188.77,-33.4 -254.97,-100.1 -66.2,-66.7 -99.31,-150 -99.31,-249.9 0,-100.8 33.55,-184.3 100.65,-250.6 67.1,-66.3 156.12,-99.4 267.05,-99.4 z m 152.99,412.3 H 7539 c 9.85,42.4 29.98,75.4 60.39,98.8 30.42,23.4 68.89,35.1 115.41,35.1 39.36,0 74.48,-11 105.34,-33.1 30.87,-22.1 51.22,-55.7 61.07,-100.8 z m 563.17,-412.3 c 99.31,0 183.4,33.6 252.29,100.8 68.89,68 103.33,151.1 103.33,249.2 0,98.1 -34.44,181 -103.33,248.6 -68.89,67.6 -152.98,101.4 -252.29,101.4 -99.3,0 -183.18,-33.8 -251.62,-101.4 -68.44,-67.6 -102.66,-150.5 -102.66,-248.6 0,-98.1 34.22,-181 102.66,-248.6 68.44,-67.6 152.32,-101.4 251.62,-101.4 z m 0,167 c -51.89,0 -95.28,17.3 -130.17,51.8 -34,34.4 -51,78.2 -51,131.2 0,53 17.23,96.8 51.67,131.3 34.44,34.4 77.61,51.7 129.5,51.7 51.89,0 95.28,-17.3 130.17,-51.7 34.89,-34.5 52.34,-78.3 52.34,-131.3 0,-53 -17.45,-96.8 -52.34,-131.2 -34.89,-34.5 -78.28,-51.8 -130.17,-51.8 z" id="path62"/>
    </clipPath>
    <clipPath clipPathUnits="userSpaceOnUse" id="clipPath70">
      <path d="M 0,0 H 24860 V 36070 H 0 Z" id="path68"/>
    </clipPath>
    <clipPath clipPathUnits="userSpaceOnUse" id="clipPath80">
      <path d="m 3284.8,32417.7 c 24.96,0 45.33,7 61.12,21.1 15.79,14.3 23.68,33.4 23.68,57.3 v 0 149.7 h -36.8 v -147.5 c 0,-13.6 -4,-24.5 -12,-32.6 -8,-8.1 -20,-12.2 -36,-12.2 -16,0 -28,4.1 -36,12.2 -8,8.1 -12,19 -12,32.6 v 0 147.5 H 3200 v -149.7 c 0,-23.9 7.89,-43 23.68,-57.1 15.78,-14.2 36.16,-21.3 61.12,-21.3 z m 137.49,4.1 49.28,81 49.28,-81 h 41.92 l -70.07,115.2 66.23,108.8 h -41.92 l -45.44,-74.5 -45.44,74.5 h -41.59 l 66.23,-108.8 -70.39,-115.2 z" id="path78"/>
    </clipPath>
    <clipPath clipPathUnits="userSpaceOnUse" id="clipPath86">
      <path d="M 0,0 H 24860 V 36070 H 0 Z" id="path84"/>
    </clipPath>
    <clipPath clipPathUnits="userSpaceOnUse" id="clipPath96">
      <path d="m 3669.84,32418 c 11.02,0 20.45,3.9 28.27,11.7 7.82,7.9 11.73,17.3 11.73,28.3 0,11 -3.91,20.4 -11.73,28.3 -7.82,7.8 -17.25,11.7 -28.27,11.7 -11.38,0 -20.89,-3.9 -28.53,-11.7 -7.65,-7.9 -11.47,-17.3 -11.47,-28.3 0,-11 3.91,-20.4 11.73,-28.3 7.82,-7.8 17.25,-11.7 28.27,-11.7 z" id="path94"/>
    </clipPath>
    <clipPath clipPathUnits="userSpaceOnUse" id="clipPath102">
      <path d="M 0,0 H 24860 V 36070 H 0 Z" id="path100"/>
    </clipPath>
    <clipPath clipPathUnits="userSpaceOnUse" id="clipPath112">
      <path d="m 3878.83,32421.8 47.68,163.6 47.36,-163.6 h 42.56 l 63.36,224 h -38.72 l -47.04,-175 -50.56,175 h -33.92 l -50.88,-175 -47.04,175 h -38.72 l 63.36,-224 z m 355.09,0 v 35.2 h -99.2 v 60.5 h 89.6 v 34.9 h -89.6 v 58.2 h 97.6 v 35.2 h -134.4 v -224 z m 118.94,0 c 18.77,0 34.66,6.1 47.68,18.3 13.01,12.1 19.51,27.4 19.51,45.7 0,11.8 -2.77,22.1 -8.32,31.1 -5.54,8.9 -13.22,16 -23.03,21.1 15.14,11.1 22.71,26.3 22.71,45.8 0,17.7 -6.34,32.4 -19.03,44.3 -12.7,11.8 -28.22,17.7 -46.57,17.7 v 0 h -88.95 v -224 z m -7.05,130.6 h -52.16 v 58.9 h 52.16 c 8.11,0 14.94,-2.8 20.48,-8.5 5.55,-5.7 8.32,-12.6 8.32,-21 0,-8.3 -2.77,-15.3 -8.32,-20.9 -5.54,-5.7 -12.37,-8.5 -20.48,-8.5 z m 7.05,-96 h -59.21 v 62.7 h 59.21 c 8.53,0 15.73,-3 21.59,-9.1 5.87,-6.1 8.8,-13.5 8.8,-22.2 0,-8.8 -2.93,-16.2 -8.8,-22.3 -5.86,-6.1 -13.06,-9.1 -21.59,-9.1 z" id="path110"/>
    </clipPath>
    <clipPath clipPathUnits="userSpaceOnUse" id="clipPath118">
      <path d="M 0,0 H 24860 V 36070 H 0 Z" id="path116"/>
    </clipPath>
    <clipPath clipPathUnits="userSpaceOnUse" id="clipPath128">
      <path d="m 4529.84,32418 c 11.02,0 20.45,3.9 28.27,11.7 7.82,7.9 11.73,17.3 11.73,28.3 0,11 -3.91,20.4 -11.73,28.3 -7.82,7.8 -17.25,11.7 -28.27,11.7 -11.38,0 -20.89,-3.9 -28.53,-11.7 -7.65,-7.9 -11.47,-17.3 -11.47,-28.3 0,-11 3.91,-20.4 11.73,-28.3 7.82,-7.8 17.25,-11.7 28.27,-11.7 z" id="path126"/>
    </clipPath>
    <clipPath clipPathUnits="userSpaceOnUse" id="clipPath134">
      <path d="M 0,0 H 24860 V 36070 H 0 Z" id="path132"/>
    </clipPath>
    <clipPath clipPathUnits="userSpaceOnUse" id="clipPath144">
      <path d="m 4725.55,32417.7 c 23.68,0 42.83,5.9 57.44,17.7 14.61,11.9 21.92,27.9 21.92,48.2 0,7.3 -0.86,13.8 -2.56,19.5 -1.71,5.8 -4.64,10.9 -8.8,15.4 -4.16,4.5 -8.06,8.2 -11.68,11.2 -3.63,3 -9.01,6 -16.16,8.9 -7.15,3 -12.7,5.2 -16.64,6.6 -3.95,1.4 -10.19,3.5 -18.72,6.2 -17.07,5.4 -28.86,10.4 -35.36,15.2 -6.51,4.8 -9.76,11.4 -9.76,19.7 0,8.6 3.2,15.3 9.6,20.3 6.4,5.1 14.93,7.6 25.6,7.6 21.97,0 37.65,-10.5 47.04,-31.4 v 0 l 31.04,17.9 c -7.26,15.4 -17.6,27.4 -31.04,36.2 -13.44,8.7 -29.12,13.1 -47.04,13.1 -19.84,0 -36.8,-5.8 -50.88,-17.4 -14.08,-11.7 -21.12,-27.4 -21.12,-47.2 0,-10.1 1.81,-18.8 5.44,-26.3 3.62,-7.4 9.12,-13.7 16.48,-18.7 7.36,-5 14.35,-8.9 20.96,-11.7 6.61,-2.8 15.25,-5.7 25.92,-8.9 18.98,-5.8 32.21,-11.1 39.68,-15.9 7.47,-4.8 11.2,-11.8 11.2,-20.9 0,-8.8 -3.47,-15.9 -10.4,-21.3 -6.94,-5.5 -17.33,-8.2 -31.2,-8.2 -28.16,0 -46.72,12.6 -55.68,37.8 v 0 l -31.68,-18.6 c 5.97,-17 16.48,-30.5 31.52,-40.3 15.04,-9.8 33.33,-14.7 54.88,-14.7 z m 174.93,4.1 v 188.8 h 63.04 v 35.2 h -163.2 v -35.2 h 63.36 v -188.8 z m 116.38,0 v 81.6 h 43.52 l 47.35,-81.6 h 40.32 l -50.88,87.1 c 13.23,5.3 23.95,13.9 32.16,25.7 8.22,11.9 12.32,24.9 12.32,39.2 0,20.1 -6.98,37.1 -20.95,51.1 -13.98,14 -30.99,20.9 -51.05,20.9 v 0 h -89.6 v -224 z m 52.79,114.6 h -52.79 v 74.9 h 52.79 c 9.82,0 18.14,-3.6 24.96,-10.9 6.83,-7.3 10.24,-16.1 10.24,-26.6 0,-10.4 -3.41,-19.3 -10.24,-26.5 -6.82,-7.3 -15.14,-10.9 -24.96,-10.9 z m 115.1,-114.6 15.68,45.2 h 95.36 l 15.68,-45.2 h 39.68 l -80.96,224 h -44.16 l -81.28,-224 z m 98.88,79.7 h -71.04 l 35.52,101.1 z m 147.41,-79.7 v 188.8 h 63.04 v 35.2 h -163.2 v -35.2 h 63.36 v -188.8 z m 215.57,0 v 35.2 h -99.2 v 60.5 h 89.61 v 34.9 h -89.61 v 58.2 h 97.61 v 35.2 h -134.41 v -224 z m 129.18,-4.1 c 32.64,0 59.09,9.7 79.36,29.3 20.26,19.5 30.4,44.6 30.4,75.3 v 0 15.4 h -112 v -33 h 74.88 c -3.41,-15.6 -11.36,-28 -23.84,-37.3 -12.48,-9.2 -28.64,-13.9 -48.48,-13.9 -24.75,0 -44.75,7.6 -60,22.7 -15.25,15.2 -22.88,34.3 -22.88,57.3 0,23.1 7.57,42.3 22.72,57.6 15.14,15.4 34.45,23.1 57.92,23.1 14.51,0 27.62,-3.3 39.36,-9.8 11.73,-6.5 20.58,-15.1 26.56,-25.8 v 0 l 31.68,18.3 c -9.6,16.2 -23.04,29.1 -40.32,38.7 -17.28,9.6 -36.38,14.4 -57.28,14.4 -33.28,0 -61.17,-11.2 -83.68,-33.8 -22.51,-22.5 -33.76,-49.9 -33.76,-82.4 0,-32.6 11.25,-60.1 33.76,-82.5 22.51,-22.4 51.04,-33.6 85.6,-33.6 z m 210.77,4.1 v 89 l 78.08,135 h -41.92 l -54.4,-99.2 -54.72,99.2 h -41.92 l 78.08,-135 v -89 z" id="path142"/>
    </clipPath>
    <clipPath clipPathUnits="userSpaceOnUse" id="clipPath150">
      <path d="M 0,0 H 24860 V 36070 H 0 Z" id="path148"/>
    </clipPath>
  </defs>
  <g id="g16" transform="matrix(0.133333, 0, 0, -0.133333, 0, 4809.333496)">
    <g id="g18" clip-path="url(#clipPath22)">
      <path d="m 1110,31680 h 8370 v 2590 H 1110 Z" style="fill:#ffffff;fill-opacity:1;fill-rule:nonzero;stroke:none" id="path24"/>
    </g>
  </g>
  <g transform="matrix(0.133333, 0, 0, -0.133333, 0, 4809.333496)">
    <g id="g26" transform="matrix(1, 0, 0, 1, -89.131905, 25.710693)">
      <g id="g28" clip-path="url(#clipPath32)">
        <g id="g34" clip-path="url(#clipPath38)">
          <path d="m 1740,32276.1 h 1260 v 1007.43 H 1740 Z" style="fill:#f100c0;fill-opacity:1;fill-rule:nonzero;stroke:none" id="path40"/>
        </g>
      </g>
      <g id="g-1" clip-path="url(#clip-1)" transform="matrix(-0.999998, 0, 0, -0.999998, 4743.802246, 65941.15625)">
        <g id="g-2" clip-path="url(#clip-2)">
          <path d="m 1740,32276.1 h 1260 v 1007.43 H 1740 Z" style="fill-opacity: 1; fill-rule: nonzero; stroke: none; fill: rgb(31, 191, 241);" id="path-3"/>
        </g>
      </g>
    </g>
    <g id="g42" transform="matrix(1, 0, 0, 1, -89.131905, 25.710693)">
      <g id="g44" clip-path="url(#clipPath48)">
        <g id="g50" clip-path="url(#clipPath54)">
          <path d="m 1940,32644.1 h 860 v 651.449 h -860 z" style="fill:#417dcc;fill-opacity:1;fill-rule:nonzero;stroke:none" id="path56"/>
        </g>
      </g>
    </g>
  </g>
  <g id="g58" transform="matrix(0.133333, 0, 0, -0.133333, 0, 4809.333496)">
    <g id="g60" clip-path="url(#clipPath64)">
      <g id="g66" clip-path="url(#clipPath70)">
        <path d="m 3150,32800 h 5700 v 800 H 3150 Z" style="fill:#1b2d4a;fill-opacity:1;fill-rule:nonzero;stroke:none" id="path72"/>
      </g>
    </g>
  </g>
  <g id="g74" transform="matrix(0.133333, 0, 0, -0.133333, 0, 4809.333496)">
    <g id="g76" clip-path="url(#clipPath80)">
      <g id="g82" clip-path="url(#clipPath86)">
        <path d="m 3150,32367.7 h 462.773 v 328.16 H 3150 Z" style="fill:#1b2d4a;fill-opacity:1;fill-rule:nonzero;stroke:none" id="path88"/>
      </g>
    </g>
  </g>
  <g id="g90" transform="matrix(0.133333, 0, 0, -0.133333, 0, 4809.333496)">
    <g id="g92" clip-path="url(#clipPath96)">
      <g id="g98" clip-path="url(#clipPath102)">
        <path d="m 3579.84,32368 h 180 v 180 h -180 z" style="fill:#f210c6;fill-opacity:1;fill-rule:nonzero;stroke:none" id="path104"/>
      </g>
    </g>
  </g>
  <g id="g106" transform="matrix(0.133333, 0, 0, -0.133333, 0, 4809.333496)">
    <g id="g108" clip-path="url(#clipPath112)">
      <g id="g114" clip-path="url(#clipPath118)">
        <path d="m 3722.91,32371.8 h 747.148 v 324 H 3722.91 Z" style="fill:#1b2d4a;fill-opacity:1;fill-rule:nonzero;stroke:none" id="path120"/>
      </g>
    </g>
  </g>
  <g id="g122" transform="matrix(0.133333, 0, 0, -0.133333, 0, 4809.333496)">
    <g id="g124" clip-path="url(#clipPath128)">
      <g id="g130" clip-path="url(#clipPath134)">
        <path d="m 4439.84,32368 h 180 v 180 h -180 z" style="fill:#f210c6;fill-opacity:1;fill-rule:nonzero;stroke:none" id="path136"/>
      </g>
    </g>
  </g>
  <g id="g138" transform="matrix(0.133333, 0, 0, -0.133333, 0, 4809.333496)">
    <g id="g140" clip-path="url(#clipPath144)">
      <g id="g146" clip-path="url(#clipPath150)">
        <path d="m 4589.15,32367.7 h 1525.49 v 332.32 H 4589.15 Z" style="fill:#1b2d4a;fill-opacity:1;fill-rule:nonzero;stroke:none" id="path152"/>
      </g>
    </g>
  </g>
</svg>