<svg xmlns="http://www.w3.org/2000/svg" width="106" height="74" xmlns:v="https://vecta.io/nano"><path d="M26.385 74c6.572 0 11.984-2.056 16.237-6.167S49 58.416 49 51.915c0-6.3-2.03-11.425-6.09-15.345s-8.988-5.88-14.787-5.88c-5.606 0-9.665 1.53-12.178 4.59.58-6.3 2.803-11.377 6.67-15.202C26.675 15.68 32 13.48 38.562 13.48c4.252 0 7.732.19 10.438.574h0V.86C46.487.287 43.008 0 38.562 0c-12.37 0-21.89 3.872-28.56 11.616S0 29.35 0 41.59c0 10.708 2.706 18.787 8.118 24.236S19.62 74 26.385 74zm57 0c6.572 0 11.984-2.056 16.237-6.167s6.38-9.417 6.38-15.92c0-6.3-2.03-11.425-6.09-15.345s-8.988-5.88-14.787-5.88c-5.606 0-9.665 1.53-12.178 4.59.58-6.3 2.803-11.377 6.67-15.202C83.675 15.68 89 13.48 95.562 13.48c4.252 0 7.732.19 10.438.574h0V.86C103.294.287 99.815 0 95.562 0c-12.37 0-21.89 3.872-28.56 11.616S57 29.35 57 41.59c0 10.708 2.706 18.787 8.118 24.236S76.62 74 83.385 74z" fill="#0caade" fill-opacity=".1"/></svg>