<svg version="1" xmlns="http://www.w3.org/2000/svg" width="1565.333" height="1565.333" viewBox="0 0 1174.000000 1174.000000"><path d="M272 121.1c-10.4 1.6-12.3 2-13.1 2.5-.5.3-1.9.7-3.1.9-5 1-11.8 3.7-11.3 4.6.4.5-.1.6-.9.3-1.4-.5-15.2 6.2-17.6 8.6-.3.3-1.4 1-2.5 1.7-1.1.6-1.9 1.6-1.7 2.3.1.6-.2.9-.8.5-1-.6-4.7 2-12.1 8.7-2.3 2-6.5 6.8-12.2 13.7-2.6 3.2-10.7 16-10.7 16.9 0 .4-1 2.7-2.2 5.2-1.2 2.5-2.5 5.4-3 6.5-1.4 3.3-4.7 15.5-4.2 15.5.3 0 0 .9-.5 1.9-1.5 2.7-2.6 18.7-2.2 30.1.3 6.7.1 41.3-.2 48.2-.1 3.5.2 5.4.8 5 .6-.3.5.1-.2.9-1.3 1.6-1.4 2.6-.2 5.6.4 1.2.5 2.4.1 2.7-.4.2-.6 9.8-.4 21.3.1 11.4.2 21.5.2 22.3-.1 3.2-.1 8.6-.1 10.5.1 2.2.1 35.1.1 37.5-.1 2.9-.1 8.5-.1 10.5 0 1.1 0 3.8-.1 6-.3 10.2 2.8 29.4 6.1 37.8 1 2.4 2.3 5.9 2.6 6.7 1.3 4.2 5.8 11.9 6.7 11.4.7-.4.8-.3.4.5-1.2 1.9 7.9 14.7 17.7 24.7 5.1 5.2 9.7 9.4 10.4 9.4.7 0 1.3.4 1.3.9 0 .4 2.8 3 6.2 5.7 3.5 2.7 7 5.6 7.8 6.4 3.4 3.3 7.3 5.9 8.1 5.4.5-.3.8-.1.7.5-.4 1.5 26.2 23.2 27.5 22.4.5-.3.7-.1.4.4-.9 1.4 10.2 10.5 11.6 9.6.5-.3.7-.2.4.4-.3.5 3.7 4.5 9 8.9 5.3 4.3 10.4 8.7 11.5 9.6 1 1 1.8 1.6 1.8 1.3 0-.2 1 .6 2.3 1.8 1.2 1.2 3.9 3.6 5.9 5.2l3.6 3.1-7.5 5.9c-4.1 3.3-8.3 6.7-9.3 7.5-1 .8-2.7 2.2-3.7 3-1 .8-8.8 7.1-17.3 13.9-8.5 6.9-15.7 12.7-16 13.1-.3.3-2.5 2.1-5 4s-4.7 3.7-5 4c-.3.3-10.6 8.6-23 18.5-26.3 21.1-33.9 28.1-41.4 37.8-7.8 10.3-17.4 29.2-19.1 37.7-.2.8-.8 3.5-1.5 5.9-.6 2.3-1.4 6.4-1.8 9-.9 6-.9 203.4 0 208.6 6.4 37.5 28.9 68.2 61.5 84.4 8.5 4.2 21.5 8.7 27.8 9.7 2.2.3 6 1 8.5 1.4 4.4.8 26.6.6 30.5-.3 1.1-.3 4-.8 6.5-1.2 11-1.8 29.4-9.6 39.9-16.8 2.5-1.7 21.3-15.9 41.6-31.6 150-115.5 135.9-104.9 147.3-110.7 17-8.6 31.7-12.1 51.3-12.2 18.9-.1 33.3 3 50.3 10.7 6 2.8 22.1 13.1 26.1 16.8 1.1 1 7 5.7 13 10.4 16.9 13.1 97.2 76.1 123 96.4 28.5 22.4 34.9 26.9 45 31.6 55.8 26.1 121 3.8 149.2-51.1 6.3-12.1 9.2-21.5 11.3-35.5 1.1-7.5 1.6-199.7.5-207-2.4-16.2-5.3-26.2-11.1-37.9-8.2-16.4-18.6-28.9-36.4-43.5-5.8-4.7-14.6-11.9-19.5-16.1-5-4.1-11.1-9.1-13.5-11.1-2.5-2.1-13.9-11.5-25.5-21.1-11.5-9.5-24.3-20-28.2-23.3-6.9-5.6-8.5-7.5-6.3-7.5.9 0 3.5-1.8 6.9-5 .9-.8 4.1-3.4 7.1-5.7 3-2.3 6.4-5 7.5-6 1.1-1 3.7-3.1 5.7-4.7 2.1-1.5 3.5-3.3 3.1-3.9-.3-.5-.1-.7.4-.4.9.6 4.6-1.6 7.9-4.8.6-.5 2.8-2.4 4.9-4 2.1-1.7 4.3-3.5 4.9-4 .6-.6 3.1-2.6 5.6-4.5 5.1-3.9 8.6-6.8 11-9 .9-.8 2.4-2 3.2-2.5 6.1-4 24.6-20 24.1-20.8-.3-.6-.1-.7.6-.3 1.1.7 2.4-.2 8.8-6.2 1.3-1.2 2.8-2.2 3.2-2.2 1.5 0 21.9-20.7 22.6-22.9.3-1.2 1.1-2.1 1.7-2.1.5 0 .8-.7.4-1.5-.3-.8 0-1.4.7-1.2.7.1 1.2-.8 1.1-1.9 0-1.2.4-2 1-1.8.6.2 1.6-.6 2.3-1.8 5-9.8 7-14.4 6.6-15.1-.2-.4 0-.7.5-.7 1 0 5.7-14.8 7.2-23 1.7-8.9 2.2-30.3.7-29.4-.9.6-.9.5 0-.7 1.6-2 1.6-44.2-.1-43.2-.8.5-.8.3 0-.8 1.6-2 1.6-64.2 0-63.2-.8.5-.7.2.1-.8.8-1.1 1-10.4.7-35.9-.2-19-.6-35.9-.8-37.5-.2-1.7-.5-3.6-.5-4.3-.1-.7-.5-1.1-1-.8-.5.4-.7-.3-.4-1.3.7-2.6-4.7-19.2-6-18.4-.6.3-.7.1-.3-.6 1.3-2.1-9-21-15.9-29-9.9-11.5-25.6-24.8-27.7-23.5-.6.4-.8.2-.5-.3.6-1-1.3-2.3-2.9-2.2-.4 0-1-.3-1.3-.8-2.2-3.1-24.4-11.6-33.6-12.9-1.1-.1-3.3-.5-5-.9-5.7-1.2-25.5-1.5-25.5-.3 0 .7-.5.7-1.4-.1-1-.8-1.6-.9-2.1-.1-.3.6-1 .8-1.5.5-.7-.4-4.1.1-12.7 1.9-5.3 1.1-13.3 4-13.3 4.8 0 .5-.4.7-.9.3-1.3-.7-14.3 5.4-13.6 6.5.3.4-.4.6-1.5.3s-2-.1-2 .5-.9 1.4-2 1.7c-1.1.4-1.7 1.1-1.4 1.7.4.7.2.8-.4.4-.9-.5-20.7 13.4-23.2 16.3-.3.3-4 3.3-8.4 6.5-4.3 3.2-8.6 6.4-9.5 7.2-3.2 2.6-17.9 14-20.5 15.9-8.6 6.3-11.5 8.9-10.9 9.8.3.6.1.7-.5.3-.9-.5-15.4 9.7-20.1 14.2-.7.7-4.8 3.8-9 6.9-4.2 3.1-8.2 6.3-8.9 7-.7.7-1.6 1.3-2 1.3-.4 0-2.1 1.4-3.9 3-1.8 1.7-3.5 3-3.8 3-.4 0-1.2.6-1.9 1.2-.7.7-2.8 2.4-4.6 3.8-8.2 6.1-13.5 10.4-13.8 11.2-.2.4-.9.8-1.5.8-.7 0-2.5 1.2-4.2 2.8-1.6 1.5-4.6 3.9-6.7 5.4-2 1.5-4.2 3.3-5 4a34 34 0 0 1-3 2.3c-.9.5-5 3.6-9.2 6.8-6.7 5.1-24.6 16.2-25.4 15.7-.3-.2-5 1.4-9.2 3.3-3 1.2-3.6 1.4-7.5 2.2-1.6.3-3.7.8-4.5 1-.8.3-3.2.7-5.4 1.1-2.1.3-4.8.8-6 1-2.6.6-23.9.5-28.1 0-6.2-.8-19.1-3.7-20.7-4.6-1-.6-2.3-1-2.9-1-1.8 0-19.3-8.4-21.3-10.2-1.1-1-2.6-1.8-3.3-1.8-.7 0-1.3-.5-1.3-1 0-.6-.7-1-1.5-1s-1.5-.5-1.5-1c0-.6-.5-1-1-1-.6 0-2.1-.9-3.3-2.1-4-3.8-16-12.4-16.9-12.1-.5.1-.7-.2-.3-.7.3-.6-.5-1.5-1.7-2.2-1.2-.7-2.9-1.8-3.6-2.5-.7-.8-4.1-3.5-7.5-6.1-3.4-2.6-6.4-5-6.7-5.3-.3-.3-2.3-1.8-4.5-3.5-2.2-1.6-5.1-4-6.5-5.2-1.4-1.3-2.8-2.3-3.2-2.3-.4 0-1.8-1-3.1-2.3-4.3-4.2-8-6.6-9-6-.6.3-.7.2-.4-.4.4-.6-1.4-2.5-3.9-4.2-2.4-1.8-5.9-4.6-7.7-6.2-1.7-1.6-3.4-2.9-3.8-2.9-.3 0-1.9-1.2-3.5-2.6-1.6-1.4-4.5-3.7-6.4-5.2-1.9-1.5-6.9-5.4-11.1-8.7-4.2-3.3-9.1-7.2-11-8.6-1.9-1.5-8.2-6.4-14-11-5.8-4.6-11.9-9.4-13.5-10.6-1.6-1.2-8.1-6.3-14.4-11.3-25.9-20.5-39.1-27.1-61.9-31.1-10.5-1.8-25.6-2.1-34.1-.8z"/></svg>